<svg xmlns="http://www.w3.org/2000/svg" xmlns:xlink="http://www.w3.org/1999/xlink" width="25" height="22" version="1.1" viewBox="0 0 25 22"><title>5D09705C-B0C9-4DC8-B539-6FE84975D469</title><desc>Created with sketchtool.</desc><g id="Home" fill="none" fill-rule="evenodd" stroke="none" stroke-width="1"><g id="Feedback---Selected:2" fill-rule="nonzero" transform="translate(-38.000000, -376.000000)"><g id="Group-3" transform="translate(13.000000, 351.000000)"><g id="add-favorite" transform="translate(25.000000, 25.000000)"><path id="Path" fill="#EF476F" d="M22.0160259,1.98885433 C19.371162,-0.662253965 15.0667348,-0.662253965 12.421349,1.98885433 C12.2747021,2.1358475 12.1343176,2.29068729 12.0001957,2.45285059 C11.8660738,2.29016419 11.7256893,2.1358475 11.5785205,1.98833122 C8.93365661,-0.662777073 4.62922937,-0.662777073 1.98384362,1.98833122 C-0.661542136,4.63943951 -0.661020261,8.95402932 1.98384362,11.6056607 L11.630708,21.275301 C11.7324737,21.3773069 11.8660738,21.4285714 11.9996738,21.4285714 C12.1332739,21.4285714 12.266874,21.3773069 12.3686396,21.275301 L22.015504,11.6056607 C24.6614117,8.95455243 24.6614117,4.63996262 22.0160259,1.98885433 Z"/><path id="Path" fill="#2FCFA4" d="M19,7.42857143 C15.686,7.42857143 13,10.1145714 13,13.4285714 C13,16.7425714 15.686,19.4285714 19,19.4285714 C22.314,19.4285714 25,16.7425714 25,13.4285714 C25,10.1145714 22.314,7.42857143 19,7.42857143 Z"/><path id="Path" fill="#FFF" d="M21.4,14.0285714 L19.6,14.0285714 L19.6,15.8285714 C19.6,16.1597714 19.3312,16.4285714 19,16.4285714 C18.6688,16.4285714 18.4,16.1597714 18.4,15.8285714 L18.4,14.0285714 L16.6,14.0285714 C16.2688,14.0285714 16,13.7597714 16,13.4285714 C16,13.0973714 16.2688,12.8285714 16.6,12.8285714 L18.4,12.8285714 L18.4,11.0285714 C18.4,10.6973714 18.6688,10.4285714 19,10.4285714 C19.3312,10.4285714 19.6,10.6973714 19.6,11.0285714 L19.6,12.8285714 L21.4,12.8285714 C21.7312,12.8285714 22,13.0973714 22,13.4285714 C22,13.7597714 21.7312,14.0285714 21.4,14.0285714 Z"/></g></g></g></g></svg>