<svg xmlns="http://www.w3.org/2000/svg" xmlns:xlink="http://www.w3.org/1999/xlink" width="260" height="252" version="1.1" viewBox="0 0 260 252"><title>D9E2B4A8-AD31-44BC-98A2-1061A503DCE6</title><defs><linearGradient id="linearGradient-1" x1="50.019%" x2="50.019%" y1="12.703%" y2="84.449%"><stop offset="0%" stop-color="#3753E3"/><stop offset="47%" stop-color="#474CF2"/><stop offset="100%" stop-color="#5447FF"/></linearGradient><linearGradient id="linearGradient-2" x1="-6319.335%" x2="-6319.335%" y1="12.7%" y2="84.432%"><stop offset="0%" stop-color="#3753E3"/><stop offset="47%" stop-color="#474CF2"/><stop offset="100%" stop-color="#5447FF"/></linearGradient><linearGradient id="linearGradient-3" x1="-5108.101%" x2="-5108.101%" y1="12.7%" y2="84.432%"><stop offset="0%" stop-color="#3753E3"/><stop offset="47%" stop-color="#474CF2"/><stop offset="100%" stop-color="#5447FF"/></linearGradient><linearGradient id="linearGradient-4" x1="-6315.623%" x2="-6315.623%" y1="12.721%" y2="84.432%"><stop offset="0%" stop-color="#3753E3"/><stop offset="47%" stop-color="#474CF2"/><stop offset="100%" stop-color="#5447FF"/></linearGradient><linearGradient id="linearGradient-5" x1="-5106.802%" x2="-5106.802%" y1="12.721%" y2="84.432%"><stop offset="0%" stop-color="#3753E3"/><stop offset="47%" stop-color="#474CF2"/><stop offset="100%" stop-color="#5447FF"/></linearGradient></defs><g id="Home" fill="none" fill-rule="evenodd" stroke="none" stroke-width="1"><g id="High-Network-fees" transform="translate(-77.000000, -87.000000)"><g id="Group" transform="translate(77.000000, 87.000000)"><polygon id="Path" fill="#0E1744" fill-rule="nonzero" points="97.753 145.851 97.753 105.618 130 124.802 130 165.035"/><polygon id="Path" fill="url(#linearGradient-1)" fill-rule="nonzero" points="162.247 145.851 162.247 105.618 130 124.802 130 165.035"/><polygon id="Path" fill="#5371EF" fill-rule="nonzero" points="97.753 105.605 130 86.211 162.247 105.605 130 124.789"/><polygon id="Path" fill="#0E1744" fill-rule="nonzero" points="195.505 59.652 195.505 19.406 227.753 38.591 227.753 78.836"/><polygon id="Path" fill="url(#linearGradient-2)" fill-rule="nonzero" points="260 59.652 260 19.406 227.753 38.591 227.753 78.836"/><polygon id="Path" fill="#5371EF" fill-rule="nonzero" points="195.505 19.394 227.753 0 260 19.394 227.753 38.578"/><polygon id="Path" fill="#0E1744" fill-rule="nonzero" points=".209 59.652 .209 19.406 32.457 38.591 32.457 78.836"/><polygon id="Path" fill="url(#linearGradient-3)" fill-rule="nonzero" points="64.704 59.652 64.704 19.406 32.457 38.591 32.457 78.836"/><polygon id="Path" fill="#5371EF" fill-rule="nonzero" points=".209 19.394 32.457 0 64.704 19.394 32.457 38.578"/><polyline id="Path" fill="#0E1744" fill-rule="nonzero" points="227.543 251.246 195.296 232.062 195.296 191.816 227.543 211.001 227.543 251.246"/><polyline id="Path" fill="url(#linearGradient-4)" fill-rule="nonzero" points="227.543 251.246 259.803 232.062 259.803 191.816 227.543 211.001 227.543 251.246"/><polygon id="Path" fill="#5371EF" fill-rule="nonzero" points="195.296 191.804 227.543 172.41 259.803 191.804 227.543 211.001"/><polyline id="Path" fill="#0E1744" fill-rule="nonzero" points="32.247 251.246 0 232.062 0 191.816 32.247 211.001 32.247 251.246"/><polyline id="Path" fill="url(#linearGradient-5)" fill-rule="nonzero" points="32.247 251.246 64.495 232.062 64.495 191.816 32.247 211.001 32.247 251.246"/><polygon id="Path" fill="#5371EF" fill-rule="nonzero" points="0 191.804 32.247 172.41 64.495 191.804 32.247 211.001"/><line id="Path" x1="83.212" x2="177.416" y1="212.236" y2="212.236" stroke="#A2B1F3" stroke-linecap="round" stroke-width="7"/><line id="Path" x1="83.003" x2="177.207" y1="39.418" y2="39.418" stroke="#A2B1F3" stroke-linecap="round" stroke-width="7"/><line id="Path" x1="227.753" x2="227.753" y1="155.956" y2="95.155" stroke="#A2B1F3" stroke-linecap="round" stroke-width="7"/><line id="Path" x1="32.247" x2="32.247" y1="156.092" y2="95.291" stroke="#A2B1F3" stroke-linecap="round" stroke-width="7"/><line id="Path" x1="62.326" x2="94.093" y1="177.635" y2="158.908" stroke="#A2B1F3" stroke-linecap="round" stroke-width="7"/><line id="Path" x1="197.908" x2="165.673" y1="177.722" y2="158.822" stroke="#A2B1F3" stroke-linecap="round" stroke-width="7"/><line id="Path" x1="165.907" x2="197.674" y1="92.338" y2="73.624" stroke="#A2B1F3" stroke-linecap="round" stroke-width="7"/><line id="Path" x1="94.327" x2="62.092" y1="92.425" y2="73.525" stroke="#A2B1F3" stroke-linecap="round" stroke-width="7"/></g></g></g></svg>