<svg xmlns="http://www.w3.org/2000/svg" xmlns:xlink="http://www.w3.org/1999/xlink" width="19" height="19" version="1.1" viewBox="0 0 19 19"><title>Icons/Small/Address-book</title><desc>Created with Sketch.</desc><g id="Symbols" fill="none" fill-rule="evenodd" stroke="none" stroke-width="1"><g id="List/Item-(Icon)" stroke="#464D5F" transform="translate(-20.000000, -18.000000)"><g id="Icons/Small-(20px)/Currency-(Dark)" transform="translate(20.000000, 18.000000)"><g id="icons/list-items/sync"><g id="Group" stroke-width=".7" transform="translate(0.405797, 0.405797)"><polyline id="Shape" points="11.768 12.986 0 12.986 0 0 17.855 0 17.855 8.846"/><circle id="Oval" cx="8.928" cy="6.493" r="1.623"/><path id="Shape" d="M15.4202899,7.30434783 L15.4202899,4.86956522 C14.0405797,4.86956522 12.9855072,3.81449275 12.9855072,2.43478261 L4.86956522,2.43478261 C4.86956522,3.81449275 3.81449275,4.86956522 2.43478261,4.86956522 L2.43478261,8.11594203 C3.81449275,8.11594203 4.86956522,9.17101449 4.86956522,10.5507246 L11.7681159,10.5507246"/><path id="Shape" d="M16.7188406,15.0144928 C17.3681159,15.3391304 17.8550725,15.7449275 17.8550725,16.2318841 C17.8550725,17.1246377 16.3942029,17.8550725 14.6086957,17.8550725 C12.8231884,17.8550725 11.3623188,17.1246377 11.3623188,16.2318841 C11.3623188,15.7449275 11.7681159,15.3391304 12.4985507,15.0144928"/><path id="Shape" d="M16.7188406,12.5797101 C17.3681159,12.9043478 17.8550725,13.3101449 17.8550725,13.7971014 C17.8550725,14.6898551 16.3942029,15.4202899 14.6086957,15.4202899 C12.8231884,15.4202899 11.3623188,14.6898551 11.3623188,13.7971014 C11.3623188,13.3101449 11.7681159,12.9043478 12.4173913,12.5797101"/><path id="Shape" d="M16.7188406,10.1449275 C17.3681159,10.4695652 17.8550725,10.8753623 17.8550725,11.3623188 C17.8550725,12.2550725 16.3942029,12.9855072 14.6086957,12.9855072 C12.8231884,12.9855072 11.3623188,12.2550725 11.3623188,11.3623188 C11.3623188,10.8753623 11.7681159,10.4695652 12.4173913,10.1449275"/><ellipse id="Oval" cx="14.609" cy="8.928" rx="3.246" ry="1.623"/></g></g></g></g></g></svg>