<svg xmlns="http://www.w3.org/2000/svg" xmlns:xlink="http://www.w3.org/1999/xlink" width="263" height="190" version="1.1" viewBox="0 0 263 190"><title>D96902FC-601C-4B69-9A72-29E72CB39A04</title><defs><linearGradient id="linearGradient-1" x1="50%" x2="50%" y1="0%" y2="100%"><stop offset=".238%" stop-color="#F7FDFB"/><stop offset="100%" stop-color="#4B4B4B"/></linearGradient><linearGradient id="linearGradient-2" x1="50%" x2="50%" y1=".871%" y2="100%"><stop offset="0%" stop-color="#2FCFA4" stop-opacity="0"/><stop offset="43.69%" stop-color="#2FCFA4" stop-opacity=".17"/><stop offset="100%" stop-color="#2FCFA4" stop-opacity=".766"/></linearGradient><circle id="path-3" cx="133" cy="95" r="95"/><linearGradient id="linearGradient-5" x1="50%" x2="50%" y1="0%" y2="100%"><stop offset="0%" stop-color="#4F6EF7"/><stop offset="100%" stop-color="#1A3B8B"/></linearGradient></defs><g id="iPhone-8" fill="none" fill-rule="evenodd" stroke="none" stroke-width="1"><g id="Feature-Walkthrough---Backup-Key" transform="translate(-55.000000, -104.000000)"><g id="Icon" transform="translate(55.000000, 104.000000)"><polygon id="Rectangle" fill="url(#linearGradient-1)" points="60.598 42.67 208.568 41.867 166.928 180.757 100.139 182.027" opacity=".166"/><mask id="mask-4" fill="#fff"><use xlink:href="#path-3"/></mask><use id="Oval" fill="url(#linearGradient-2)" opacity=".5" xlink:href="#path-3"/><g id="lock" fill-rule="nonzero" mask="url(#mask-4)"><g id="Path"><path fill="#434D5A" d="M28.3636364,43 L28.3636364,29.5625 C28.3636364,19.1891263 36.4994536,10.75 46.5,10.75 C56.5005464,10.75 64.6363636,19.1891263 64.6363636,29.5625 L64.6363636,43 L75,43 L75,29.5625 C75,13.2616569 62.2149777,0 46.5,0 C30.7850223,0 18,13.2616569 18,29.5625 L18,43 L28.3636364,43 Z" transform="translate(88.000000, 76.000000)"/><path fill="url(#linearGradient-5)" d="M84.7058824,121 L5.29411765,121 C2.37025588,121 0,118.671882 0,115.8 L0,48.2 C0,45.328118 2.37025588,43 5.29411765,43 L84.7058824,43 C87.6297441,43 90,45.328118 90,48.2 L90,115.8 C90,118.671882 87.6297441,121 84.7058824,121 Z" transform="translate(88.000000, 76.000000)"/><path fill="#161E32" d="M56,72.2857143 C56,66.6049914 51.522925,62 46,62 C40.477225,62 36,66.6049914 36,72.2857143 C36,76.0832257 38.023625,79.3631086 41,81.1447743 L41,98 L51,98 L51,81.1447743 C53.976525,79.3629543 56,76.0832257 56,72.2857143 Z" transform="translate(88.000000, 76.000000)"/></g></g></g></g></g></svg>