<svg xmlns="http://www.w3.org/2000/svg" width="45" height="45" fill="none" viewBox="0 0 45 45"><ellipse cx="22.5" cy="22.011" fill="#214497" rx="22.5" ry="22.011" transform="rotate(-180 22.5 22.0109)"/><mask id="mask0" width="45" height="45" x="0" y="0" maskUnits="userSpaceOnUse" style="mask-type:alpha"><ellipse cx="22.5" cy="22.011" fill="#fff" rx="22.5" ry="22.011" transform="rotate(-180 22.5 22.0109)"/></mask><g mask="url(#mask0)"><ellipse cx="31" cy="32.283" fill="#1A2C57" rx="24" ry="23.478" transform="rotate(-180 31 32.2827)"/><mask id="mask1" width="48" height="48" x="7" y="8" maskUnits="userSpaceOnUse" style="mask-type:alpha"><ellipse cx="31" cy="32.283" fill="#fff" rx="24" ry="23.478" transform="rotate(-180 31 32.2827)"/></mask><g clip-path="url(#clip0)"><g clip-path="url(#clip1)"><path fill="#4F6EF7" d="M21.6563 29.3625C23.4684 29.3625 24.9375 27.8935 24.9375 26.0813C24.9375 24.2691 23.4684 22.8 21.6563 22.8C19.8441 22.8 18.375 24.2691 18.375 26.0813C18.375 27.8935 19.8441 29.3625 21.6563 29.3625Z"/><path fill="#4F6EF7" d="M29.4628 13.1636L19.6978 18.0408L17.4167 12.489L25.4807 4.42497L23.6248 2.56909L13.9556 12.2383L1.46584 10.851L1.17578 13.4602L11.2689 14.5811L14.4373 21.8169V33.3H17.0623V22.2894L30.6348 15.513L29.4628 13.1636Z"/></g></g></g><defs><clipPath id="clip0"><rect width="27.9" height="27.9" fill="#fff" transform="translate(1.7998 5.30225)"/></clipPath><clipPath id="clip1"><rect width="31.5" height="31.5" fill="#fff" transform="translate(0 1.80005)"/></clipPath></defs></svg>