<svg xmlns="http://www.w3.org/2000/svg" xmlns:xlink="http://www.w3.org/1999/xlink" width="35" height="35" version="1.1" viewBox="0 0 35 35"><title>Icons/Send</title><desc>Created with Sketch.</desc><defs><path id="path-1" d="M16.5,33 C25.6126984,33 33,25.6126984 33,16.5 C33,7.38730163 25.6126984,0 16.5,0 C7.38730163,0 0,7.38730163 0,16.5 C0,25.6126984 7.38730163,33 16.5,33 Z"/></defs><g id="Symbols" fill="none" fill-rule="evenodd" stroke="none" stroke-width="1"><g id="List/Transaction/Processing" transform="translate(-20.000000, -25.000000)"><g id="Transaction-"><g id="Icons/Transaction/Processing" transform="translate(13.000000, 18.000000)"><g id="Icons/Send"><g id="Group-2" transform="translate(8.000000, 8.000000)"><g id="Oval-204" opacity=".8"><use fill="none" fill-rule="evenodd" xlink:href="#path-1"/><path stroke="#BDBDBD" stroke-width="1" d="M16.5,33.5 C7.11115925,33.5 -0.5,25.8888407 -0.5,16.5 C-0.5,7.11115925 7.11115925,-0.5 16.5,-0.5 C25.8888407,-0.5 33.5,7.11115925 33.5,16.5 C33.5,25.8888407 25.8888407,33.5 16.5,33.5 Z"/></g><g id="Group" stroke="#BDBDBD" transform="translate(8.000000, 7.500000)"><path id="Shape" d="M0,9 C0,4.05 3.80952381,0 8.46560847,0 C11.7671958,0 14.6455026,1.98 16,4.95"/><path id="Shape" d="M17,9 C17,13.95 13.1904762,18 8.53439153,18 C5.23280423,18 2.35449735,16.02 1,13.05"/><polyline id="Shape" points="17 0 16.294 5 11 4.322"/><polyline id="Shape" points="0 18 .706 13 6 13.678"/></g></g></g></g></g></g></g></svg>