<svg xmlns="http://www.w3.org/2000/svg" xmlns:xlink="http://www.w3.org/1999/xlink" width="50" height="50" version="1.1" viewBox="0 0 50 50"><title>Wallet/Large (50px)/multi-device</title><desc>Created with Sketch.</desc><defs><path id="path-1" d="M25,50 C38.8071187,50 50,38.8071187 50,25 C50,11.1928813 38.8071187,0 25,0 C11.1928813,0 0,11.1928813 0,25 C0,38.8071187 11.1928813,50 25,50 Z"/></defs><g id="Wallet/Large-(50px)/multi-device" fill="none" fill-rule="evenodd" stroke="none" stroke-width="1"><g id="item-ico-backup"><mask id="mask-2" fill="#fff"><use xlink:href="#path-1"/></mask><use id="Mask" fill="#C955FD" opacity=".1" xlink:href="#path-1"/></g><g id="mirror-tablet-phone" fill="#D24DEA" fill-rule="nonzero" transform="translate(14.000000, 14.000000)"><path id="Shape" d="M21.1538462,23 L12.8461538,23 C11.8265512,23 11,22.1045695 11,21 L11,10 C11,8.8954305 11.8265512,8 12.8461538,8 L21.1538462,8 C22.1734488,8 23,8.8954305 23,10 L23,21 C23,22.1045695 22.1734488,23 21.1538462,23 Z M12.8461538,10 L12.8461538,10 L12.8461538,20 L21.1538462,20 L21.1538462,10 L12.8461538,10 Z"/><path id="Path" d="M8.5,17.1818182 L1.88888889,17.1818182 L1.88888889,1.90909091 L15.1111111,1.90909091 L15.1111111,6.68181818 L17,6.68181818 L17,1.90909091 C17,0.854729114 16.1543156,6.45610399e-17 15.1111111,0 L1.88888889,0 C0.845684361,-6.45610399e-17 1.27755709e-16,0.854729114 0,1.90909091 L0,19.0909091 C1.27755709e-16,20.1452709 0.845684361,21 1.88888889,21 L8.5,21 L8.5,17.1818182 Z"/></g></g></svg>