<svg xmlns="http://www.w3.org/2000/svg" xmlns:xlink="http://www.w3.org/1999/xlink" width="36" height="36" version="1.1" viewBox="0 0 36 36"><title>Button/Scan (Selected)</title><defs><filter id="filter-1"><feColorMatrix in="SourceGraphic" type="matrix" values="0 0 0 0 1.000000 0 0 0 0 1.000000 0 0 0 0 1.000000 0 0 0 1.000000 0"/></filter></defs><g id="Symbols" fill="none" fill-rule="evenodd" stroke="none" stroke-width="1"><g id="Button/Scan-(Selected)"><rect id="Rectangle" width="36" height="36" x="0" y="0" fill="#4F6EF7" rx="18"/><g id="Interface/Medium/Scan" filter="url(#filter-1)" transform="translate(8.000000, 8.000000)"><g><g id="Tabs-(Scan)" fill="#9BA3AE" transform="translate(0.000000, 3.333333)"><line id="Line" x1="0" x2="20" y1="6.185" y2="6.185"/></g><path id="Rectangle-Copy-2" fill="#9BA3AE" d="M17.5,12.5 L17.5,17.5 L12.5,17.5 L12.5,15.5 L15.5,15.5 L15.5,12.5 L17.5,12.5 Z M4.5,12.5 L4.5,15.5 L7.5,15.5 L7.5,17.5 L2.5,17.5 L2.5,12.5 L4.5,12.5 Z M20,10 L20,10.8333333 L0,10.8333333 L0,10 L20,10 Z M7.5,3.33333333 L7.5,5 L4.166,4.99933333 L4.16666667,8.33333333 L2.5,8.33333333 L2.5,3.33333333 L7.5,3.33333333 Z M17.5,3.33333333 L17.5,8.33333333 L15.5,8.33333333 L15.5,5.33333333 L12.5,5.33333333 L12.5,3.33333333 L17.5,3.33333333 Z"/></g></g></g></g></svg>